<svg width="38" height="38" viewBox="0 0 38 38" fill="none" xmlns="http://www.w3.org/2000/svg">
<g clip-path="url(#clip0_59825_6)">
<path fill-rule="evenodd" clip-rule="evenodd" d="M31.3139 7.01402C33.0364 6.28874 34.883 7.74529 34.5789 9.58939L30.9865 31.3708C30.64 33.471 28.3334 34.676 26.4067 33.6295C24.7944 32.7537 22.4023 31.4058 20.2464 29.9971C19.1699 29.2937 15.8735 27.0381 16.2787 25.4324C16.6251 24.0595 22.1667 18.9011 25.3333 15.8334C26.5772 14.6284 26.0107 13.9323 24.5417 15.0418C20.8975 17.7941 15.0468 21.9787 13.112 23.1564C11.4049 24.1953 10.5137 24.3727 9.45053 24.1953C7.50915 23.8719 5.70927 23.3709 4.23981 22.7618C2.25372 21.9385 2.35046 19.2091 4.23846 18.4143L31.3139 7.01402Z" fill="white"/>
</g>
<defs>
<clipPath id="clip0_59825_6">
<rect width="38" height="38" fill="white"/>
</clipPath>
</defs>
</svg>
